<svg width="16" height="11" fill="none" xmlns="http://www.w3.org/2000/svg"><path d="M7.397.9c.07 0 .13.026.182.078a.25.25 0 0 1 .078.182c0 .07-.013.13-.039.182L4.966 7.348c-.303.685-.576 1.209-.819 1.573a2.452 2.452 0 0 1-.832.806c-.32.182-.737.273-1.248.273h-.52a.328.328 0 0 1-.221-.078.328.328 0 0 1-.078-.221v-.546c0-.087.026-.16.078-.221a.3.3 0 0 1 .221-.091h.455c.347 0 .633-.104.858-.312.234-.217.472-.576.715-1.079L.208 1.316a.324.324 0 0 1-.039-.143c0-.07.026-.13.078-.182A.273.273 0 0 1 .442.9h.741c.13 0 .234.074.312.221l2.704 4.927L6.37 1.121A.29.29 0 0 1 6.5.965.33.33 0 0 1 6.695.9h.702Zm4.132 9.23c-.684 0-1.274-.1-1.768-.299-.485-.208-.862-.485-1.13-.832a2.31 2.31 0 0 1-.469-1.183V7.79c0-.07.026-.121.078-.156a.294.294 0 0 1 .195-.065h.65c.096 0 .174.022.234.065.06.035.104.104.13.208.104.364.334.654.69.871.355.208.814.312 1.377.312.624 0 1.144-.143 1.56-.429.425-.286.637-.676.637-1.17 0-.511-.186-.906-.559-1.183-.364-.286-.862-.429-1.495-.429h-.923a.328.328 0 0 1-.22-.078.328.328 0 0 1-.079-.221V5.06c0-.095.026-.169.078-.221a.3.3 0 0 1 .221-.091h.871c.555 0 .993-.121 1.313-.364.33-.243.494-.611.494-1.105 0-.425-.177-.763-.533-1.014-.355-.26-.797-.39-1.326-.39-.546 0-.992.1-1.339.299-.346.2-.563.503-.65.91-.043.173-.147.26-.312.26h-.702a.31.31 0 0 1-.208-.078.226.226 0 0 1-.065-.195c.06-.693.373-1.248.936-1.664C9.78.982 10.567.77 11.581.77c.659 0 1.222.113 1.69.338.477.225.832.524 1.066.897.243.373.364.776.364 1.209 0 .927-.346 1.595-1.04 2.002.45.225.789.533 1.014.923.226.381.338.819.338 1.313 0 .529-.143.997-.429 1.404-.286.399-.693.71-1.222.936-.52.225-1.13.338-1.833.338Z" fill="#000"/></svg>