<svg width="149" height="50" fill="none" xmlns="http://www.w3.org/2000/svg"><rect width="149" height="50" rx="10" fill="#F78B3B"/><path d="M32.04 32a.463.463 0 0 1-.34-.14.463.463 0 0 1-.14-.34V18.5c0-.147.04-.267.12-.36a.487.487 0 0 1 .36-.14h5.8c1.56 0 2.72.347 3.48 1.04.773.68 1.16 1.613 1.16 2.8 0 .693-.173 1.287-.52 1.78-.333.48-.727.827-1.18 1.04.56.253 1.027.667 1.4 1.24.387.573.58 1.227.58 1.96 0 1.24-.42 2.24-1.26 3-.827.76-1.993 1.14-3.5 1.14h-5.96Zm5.44-8.26c.693 0 1.22-.167 1.58-.5.36-.333.54-.78.54-1.34 0-.573-.18-1.013-.54-1.32-.36-.32-.887-.48-1.58-.48h-3.14v3.64h3.14Zm.2 6.14c.693 0 1.233-.187 1.62-.56.387-.387.58-.873.58-1.46 0-.6-.193-1.087-.58-1.46-.387-.387-.927-.58-1.62-.58h-3.34v4.06h3.34Zm16.93 1.5c.068.067.1.153.1.26 0 .107-.04.193-.12.26-.08.067-.18.1-.3.1h-2.02c-.212 0-.4-.1-.56-.3l-2.6-3.92h-1.48v3.74a.463.463 0 0 1-.14.34.463.463 0 0 1-.34.14h-1.64a.463.463 0 0 1-.34-.14.463.463 0 0 1-.14-.34v-9.44c0-.133.048-.247.14-.34a.463.463 0 0 1 .34-.14h1.64c.134 0 .248.047.34.14.094.093.14.207.14.34v3.58h1.48l2.4-3.74c.08-.107.16-.187.24-.24a.569.569 0 0 1 .32-.08h1.78c.134 0 .24.033.32.1.08.067.12.153.12.26 0 .08-.032.167-.1.26l-2.86 4.4 3.28 4.76Zm1.527.62a.533.533 0 0 1-.36-.14.533.533 0 0 1-.14-.36v-1.24c0-.133.04-.24.12-.32a.485.485 0 0 1 .34-.16c.586-.027 1.006-.427 1.26-1.2.266-.787.4-2.053.4-3.8v-2.7c0-.147.046-.26.14-.34a.463.463 0 0 1 .34-.14h7.1c.133 0 .246.047.34.14.093.093.14.207.14.34v9.44a.463.463 0 0 1-.14.34.463.463 0 0 1-.34.14h-1.66a.463.463 0 0 1-.34-.14.463.463 0 0 1-.14-.34v-7.8h-2.94v1.34c0 1.733-.134 3.1-.4 4.1-.254 1-.68 1.727-1.28 2.18-.587.44-1.4.66-2.44.66Zm26.81-6.08c.014.16.02.453.02.88s-.006.72-.02.88c-.066 1.4-.526 2.507-1.38 3.32-.853.8-2.06 1.2-3.62 1.2-1.546 0-2.746-.393-3.6-1.18-.84-.8-1.306-1.887-1.4-3.26h-1.82v3.76a.463.463 0 0 1-.14.34.423.423 0 0 1-.34.14h-1.66a.463.463 0 0 1-.34-.14.463.463 0 0 1-.14-.34v-9.44c0-.133.047-.247.14-.34a.463.463 0 0 1 .34-.14h1.66c.147 0 .26.047.34.14.094.08.14.193.14.34v3.58h1.84c.12-1.32.607-2.36 1.46-3.12.867-.76 2.04-1.14 3.52-1.14 1.534 0 2.734.407 3.6 1.22.867.813 1.334 1.913 1.4 3.3Zm-2.72 1.66c.014-.133.02-.393.02-.78s-.006-.647-.02-.78c-.04-.867-.253-1.52-.64-1.96-.386-.453-.933-.68-1.64-.68-.706 0-1.253.227-1.64.68-.386.44-.6 1.093-.64 1.96l-.02.78.02.78c.04.867.254 1.527.64 1.98.387.44.934.66 1.64.66.707 0 1.254-.22 1.64-.66.387-.453.6-1.113.64-1.98ZM91.768 32a.463.463 0 0 1-.34-.14.463.463 0 0 1-.14-.34v-3.4c-.653.573-1.613.86-2.88.86-1.253 0-2.2-.293-2.84-.88-.64-.6-.96-1.533-.96-2.8v-3.22c0-.147.047-.26.14-.34a.463.463 0 0 1 .34-.14h1.72c.133 0 .247.047.34.14.093.093.14.207.14.34v3.08c0 .533.14.92.42 1.16.294.227.76.34 1.4.34 1.454 0 2.18-.393 2.18-1.18v-3.4c0-.147.047-.26.14-.34a.463.463 0 0 1 .34-.14h1.8c.134 0 .247.047.34.14.094.093.14.207.14.34v9.44a.463.463 0 0 1-.14.34.463.463 0 0 1-.34.14h-1.8Zm14.463-10.4c.12 0 .226.047.32.14.093.08.14.18.14.3v9.48a.464.464 0 0 1-.14.34.465.465 0 0 1-.34.14h-1.66a.461.461 0 0 1-.34-.14.46.46 0 0 1-.14-.34V25.1l-4.8 6.58c-.12.213-.3.32-.54.32h-1.52a.478.478 0 0 1-.32-.12.463.463 0 0 1-.14-.34v-9.46c0-.133.046-.247.14-.34a.463.463 0 0 1 .34-.14h1.66c.146 0 .26.047.34.14.093.08.14.193.14.34v6.44l4.8-6.6c.146-.213.326-.32.54-.32h1.52Zm6.161 10.4a.461.461 0 0 1-.34-.14.46.46 0 0 1-.14-.34v-7.8h-3.26a.461.461 0 0 1-.34-.14.485.485 0 0 1-.14-.36v-1.14c0-.147.046-.26.14-.34a.461.461 0 0 1 .34-.14h9.08a.49.49 0 0 1 .36.14c.093.093.14.207.14.34v1.14a.534.534 0 0 1-.14.36.49.49 0 0 1-.36.14h-3.24v7.8a.464.464 0 0 1-.14.34.424.424 0 0 1-.34.14h-1.62Z" fill="#fff"/></svg>